<svg width="332" height="440" viewBox="0 0 332 440" fill="none" xmlns="http://www.w3.org/2000/svg">
<mask id="mask0" mask-type="alpha" maskUnits="userSpaceOnUse" x="-6" y="-5" width="338" height="445">
<path d="M311.845 -5H14C2.9543 -5 -6 3.9543 -6 15V419.357C-6 430.403 2.9543 439.357 14 439.357H311.845C322.891 439.357 331.845 430.403 331.845 419.357V15C331.845 3.9543 322.891 -5 311.845 -5Z" fill="white"/>
</mask>
<g mask="url(#mask0)">
<path fill-rule="evenodd" clip-rule="evenodd" d="M121.25 122.164L223.148 191.817H197.986V284.293H45.3013V191.817H19.3521L64.1896 161.168V139.479H88.5876V144.491L121.25 122.164ZM415.128 201.657H464.34L350.757 158.456L240.499 200.392H237.893V201.383L237.174 201.657H237.893V284.732H415.128V201.657Z" fill="url(#paint0_linear)"/>
<path d="M354.011 283.509H-9.01465V358.07H354.011V283.509Z" fill="url(#paint1_radial)"/>
<path d="M105.883 197.948H71.6582V243.173H105.883V197.948Z" fill="url(#paint2_linear)"/>
<path d="M169.444 197.948H135.219V243.173H169.444V197.948Z" fill="url(#paint3_linear)"/>
<path d="M311.231 217.505H266.006V261.508H311.231V217.505Z" fill="url(#paint4_linear)"/>
<path opacity="0.2" fill-rule="evenodd" clip-rule="evenodd" d="M305.119 289.621C305.119 280.129 299.001 272.23 290.923 270.563C286.997 262.057 279.046 256.24 269.878 256.24C269.585 256.24 269.294 256.246 269.004 256.258C266.371 249.288 260.188 244.395 252.981 244.395C245.018 244.395 238.306 250.368 236.25 258.516C235.561 258.435 234.862 258.394 234.153 258.394C228.499 258.394 223.398 261.038 219.791 265.279C218.34 265 216.848 264.855 215.326 264.855C200.928 264.855 190.222 273.564 190.222 289.621C226.912 289.621 255.878 289.621 305.119 289.621Z" fill="url(#paint5_radial)"/>
<path opacity="0.2" fill-rule="evenodd" clip-rule="evenodd" d="M-33.4607 289.621C-33.4607 278.076 -26.0407 268.47 -16.2436 266.442C-11.4819 256.098 -1.84016 249.023 9.27911 249.023C9.6338 249.023 9.98711 249.03 10.3387 249.044C13.532 240.568 21.03 234.617 29.7708 234.617C39.4282 234.617 47.5686 241.881 50.062 251.791C50.8974 251.692 51.7456 251.642 52.6043 251.642C59.4624 251.642 65.6487 254.859 70.0231 260.016C71.7825 259.677 73.5917 259.5 75.4379 259.5C92.8988 259.5 105.883 270.092 105.883 289.621C61.3865 289.621 26.2579 289.621 -33.4607 289.621Z" fill="url(#paint6_radial)"/>
<path d="M140.974 110.482C140.563 115.522 139.226 119.471 136.541 121.281C138.756 123.153 144.286 127.088 148.688 127.854C154.19 128.81 161.153 124.306 159.641 124.182C158.633 124.1 157.32 117.398 156.854 114.823C152.401 113.445 141.079 109.207 140.974 110.482Z" fill="#E9A99C"/>
<path d="M162.664 114.795C163.233 112.086 163.082 104.355 162.592 99.7229C162.006 93.2189 158.751 88.2182 150.655 86.2658C142.558 84.3133 138.877 88.7379 137.509 92.9401C135.189 100.068 139.273 108.58 142.085 111.392C144.897 114.205 161.954 118.18 162.664 114.795Z" fill="#F6B3A6"/>
<path d="M138.814 98.9349C140.557 98.4049 142.125 100.923 142.348 103.517L145.332 104.693C143.792 102.278 141.221 95.506 142.787 92.82C145.168 88.7361 147.023 88.3627 153.451 89.827C157.695 90.7939 160.769 91.6828 162.98 89.827C165.777 87.4795 165.999 84.1475 164.914 81.4829C163.45 77.8861 161.747 77.0401 159.595 78.5817C156.368 80.8941 151.859 78.098 145.332 79.0907C135.525 80.5821 134.475 88.2774 134.196 91.6892C133.848 95.954 136.24 103.877 138.292 105.332C138.035 103.165 136.588 99.6119 138.814 98.9349Z" fill="#52385E"/>
<path d="M170.208 183.975V183.939C170.123 179.146 174.89 175.615 179.526 173.784C184.161 171.953 220.496 171.791 224.225 171.791C226.293 172.817 226.293 175.071 226.293 177.626C201.638 185.873 187.602 193.183 176.977 192.159C170.342 191.519 170.293 188.746 170.208 183.975Z" fill="url(#paint7_linear)"/>
<path fill-rule="evenodd" clip-rule="evenodd" d="M162.981 203.856C168.3 203.856 174.834 205.306 176.334 227.673C177.633 247.048 165.502 283.814 156.287 289.269C145.557 299.533 112.125 325.519 108.206 323.4C104.257 321.265 107.394 316.716 110.761 311.831C111.147 311.271 111.537 310.707 111.918 310.141C113.16 308.302 114.625 305.966 116.236 303.397C122.062 294.109 129.8 281.771 135.785 278.85C137.69 277.919 139.641 277.108 141.551 276.467C139.776 260.047 142.445 226.142 145.089 217.395C148.135 207.323 154.277 203.856 162.981 203.856Z" fill="url(#paint8_linear)"/>
<path fill-rule="evenodd" clip-rule="evenodd" d="M146.54 211.592C153.793 218.846 160.129 226.171 165.398 233.836C166.197 234.997 167.498 236.772 169.106 238.964C177.003 249.733 192.284 270.571 191.577 278.212C195.288 290.819 202.603 332.47 198.683 334.9C195.423 336.921 194.339 335.241 193.297 333.625C192.973 333.123 192.653 332.628 192.273 332.251C186.658 326.681 169.304 294.632 169.838 286.155C169.954 284.322 170.129 282.529 170.383 280.831C170.201 280.794 170.021 280.758 169.841 280.722L169.75 280.703C161.854 279.109 138.865 268.876 126.231 244.957C120.239 233.613 121.396 221.263 125.747 213.527C130.099 205.79 139.287 204.339 146.54 211.592Z" fill="url(#paint9_linear)"/>
<path d="M204.279 343.403C201.63 338.972 202.446 334.235 202.446 322.623C197.556 323.846 191.445 325.068 185.333 326.29C188.389 334.846 190.834 338.513 190.223 344.625C189.611 350.737 190.731 353.854 193.893 353.854C202.616 353.854 217.36 360.942 224.447 353.854C228.114 350.187 206.929 347.833 204.279 343.403Z" fill="#5F3B2C"/>
<path d="M104.66 333.624C107.716 329.246 110.772 326.901 118.106 322.836C115.661 318.956 111.994 314.678 108.939 311.011C104.66 316.512 102.485 319.703 94.613 322.836C88.4471 325.289 86.7374 330.553 89.9927 334.235C93.2481 337.917 91.8262 348.292 96.104 351.959C98.393 353.921 108.354 353.715 112.605 353.181C116.857 352.647 114.439 348.903 107.105 346.458C102.924 345.065 102.617 336.552 104.66 333.624Z" fill="#5F3B2C"/>
<path d="M148.474 126.453C141.221 125.486 138.983 120.865 135.902 121.134C128.34 121.793 119.406 123.427 116.077 127.42C109.791 143.377 111.725 150.146 113.659 158.85C116.894 173.408 126.231 198.984 128.649 209.622C139.256 215.456 164.193 216.954 173.135 210.589C174.726 205.286 174.816 202.229 178.454 187.379C181.847 173.527 186.762 164.169 184.256 145.794C182.806 135.156 172.651 124.035 158.628 124.035C154.385 127.217 153.1 127.07 148.474 126.453Z" fill="url(#paint10_linear)"/>
<path d="M238.413 118.232C236.58 118.232 205.443 112.43 190.543 112.43V82.4501C203.724 82.4501 224.56 86.1609 237.454 89.8822C237.454 98.47 238.413 107.641 238.413 118.232Z" fill="url(#paint11_linear)"/>
<path d="M175.069 89.2197C176.184 88.0747 187.289 83.4997 190.542 82.4501V115.331H175.069C174.325 105.789 173.954 90.3647 175.069 89.2197Z" fill="url(#paint12_linear)"/>
<path d="M250.343 171.725C246.949 171.725 206.323 176.498 178.744 176.498V110.203C198.279 110.203 235.512 114.364 248.568 119.199C248.568 135.11 250.343 152.102 250.343 171.725Z" fill="url(#paint13_linear)"/>
<path d="M157.53 118.689C159.651 116.567 172.557 112.147 178.744 110.203V176.498L159.121 174.377C157.706 156.698 155.408 120.81 157.53 118.689Z" fill="url(#paint14_linear)"/>
<path fill-rule="evenodd" clip-rule="evenodd" d="M111.725 129.837C119.461 121.989 126.757 123.942 132.034 129.837C140.847 139.685 144.596 163.276 145.59 174.561C151.017 174.315 161.841 174.924 171.371 175.46C180.621 175.981 188.654 176.433 189.351 175.968C191.993 176.258 193.443 179.159 192.533 182.863C190.927 182.863 185.475 184.545 178.503 186.697C166.813 190.304 150.85 195.23 141.579 195.753C136.985 197.309 131.168 194.364 126.57 189.062C121.628 183.363 112.494 172.25 107.856 162.235C103.174 152.124 103.988 137.686 111.725 129.837Z" fill="url(#paint15_linear)"/>
<path d="M195.862 171.906C194.572 173.84 191.187 175.452 189.576 176.258C191.993 177.708 191.51 180.126 191.993 182.544C192.38 182.544 199.246 181.415 202.631 181.093C203.276 180.61 205.436 179.933 206.983 177.225C208.917 173.84 207.95 166.587 206.983 166.103C206.209 165.716 200.213 166.426 197.312 167.07C196.667 167.554 197.151 169.972 195.862 171.906Z" fill="#F6B3A6"/>
<path d="M229.226 171.422C228.082 173.118 227.272 173.134 225.841 173.84C226.325 174.807 226.325 175.774 225.841 177.708C226.185 177.708 232.974 176.236 235.978 175.953C236.55 175.53 238.467 174.936 239.84 172.563C241.557 169.596 240.698 163.239 239.84 162.815C239.153 162.476 233.832 163.097 231.257 163.662C230.685 164.086 230.37 169.727 229.226 171.422Z" fill="#F6B3A6"/>
</g>
<defs>
<linearGradient id="paint0_linear" x1="241.846" y1="122.164" x2="241.783" y2="295.813" gradientUnits="userSpaceOnUse">
<stop stop-color="#2B485C" stop-opacity="0.06"/>
<stop offset="1" stop-color="#2B485C" stop-opacity="0"/>
</linearGradient>
<radialGradient id="paint1_radial" cx="0" cy="0" r="1" gradientUnits="userSpaceOnUse" gradientTransform="translate(172.499 266.564) rotate(90) scale(80.3709 192.743)">
<stop stop-color="#325362" stop-opacity="0.1"/>
<stop offset="1" stop-color="#517281" stop-opacity="0"/>
</radialGradient>
<linearGradient id="paint2_linear" x1="88.7706" y1="197.948" x2="88.7066" y2="246.387" gradientUnits="userSpaceOnUse">
<stop stop-color="#D6D9DB"/>
<stop offset="1" stop-color="#D6DDE3" stop-opacity="0"/>
</linearGradient>
<linearGradient id="paint3_linear" x1="152.331" y1="197.948" x2="152.267" y2="246.387" gradientUnits="userSpaceOnUse">
<stop stop-color="white"/>
<stop offset="1" stop-color="white" stop-opacity="0"/>
</linearGradient>
<linearGradient id="paint4_linear" x1="288.619" y1="217.505" x2="288.573" y2="264.635" gradientUnits="userSpaceOnUse">
<stop stop-color="#D6D9DB"/>
<stop offset="1" stop-color="#D6DDE3" stop-opacity="0"/>
</linearGradient>
<radialGradient id="paint5_radial" cx="0" cy="0" r="1" gradientUnits="userSpaceOnUse" gradientTransform="translate(247.669 218.913) rotate(90) scale(67.0871 259.015)">
<stop stop-color="#3EB366"/>
<stop offset="1" stop-color="#3EB366" stop-opacity="0"/>
</radialGradient>
<radialGradient id="paint6_radial" cx="0" cy="0" r="1" gradientUnits="userSpaceOnUse" gradientTransform="translate(36.2126 203.624) rotate(90) scale(81.5924 314.125)">
<stop stop-color="#3EB366"/>
<stop offset="1" stop-color="#3EB366" stop-opacity="0"/>
</radialGradient>
<linearGradient id="paint7_linear" x1="220.013" y1="196.603" x2="177.609" y2="185.644" gradientUnits="userSpaceOnUse">
<stop stop-color="#753CD3"/>
<stop offset="1" stop-color="#4C259D"/>
</linearGradient>
<linearGradient id="paint8_linear" x1="157.831" y1="218.116" x2="98.1979" y2="315.804" gradientUnits="userSpaceOnUse">
<stop stop-color="#FFBD59"/>
<stop offset="1" stop-color="#EC882C"/>
</linearGradient>
<linearGradient id="paint9_linear" x1="107.105" y1="216.282" x2="182.615" y2="295.751" gradientUnits="userSpaceOnUse">
<stop stop-color="#FFBD59"/>
<stop offset="1" stop-color="#EC882C"/>
</linearGradient>
<linearGradient id="paint10_linear" x1="159.43" y1="176.912" x2="179.79" y2="230.282" gradientUnits="userSpaceOnUse">
<stop stop-color="#753CD3"/>
<stop offset="1" stop-color="#4C259D"/>
</linearGradient>
<linearGradient id="paint11_linear" x1="223.042" y1="76.6054" x2="199.304" y2="118.123" gradientUnits="userSpaceOnUse">
<stop stop-color="#FACB85"/>
<stop offset="1" stop-color="#DCA470"/>
</linearGradient>
<linearGradient id="paint12_linear" x1="190.644" y1="82.6081" x2="169.618" y2="87.9949" gradientUnits="userSpaceOnUse">
<stop stop-color="#FACB85"/>
<stop offset="1" stop-color="#DCA470"/>
</linearGradient>
<linearGradient id="paint13_linear" x1="238.897" y1="99.374" x2="214.72" y2="176.258" gradientUnits="userSpaceOnUse">
<stop stop-color="#FACB85"/>
<stop offset="1" stop-color="#D99D65"/>
</linearGradient>
<linearGradient id="paint14_linear" x1="178.937" y1="110.496" x2="139.075" y2="120.98" gradientUnits="userSpaceOnUse">
<stop stop-color="#FACB85"/>
<stop offset="1" stop-color="#DCA470"/>
</linearGradient>
<linearGradient id="paint15_linear" x1="112.666" y1="146.798" x2="174.623" y2="184.614" gradientUnits="userSpaceOnUse">
<stop stop-color="#753CD3"/>
<stop offset="1" stop-color="#4C259D"/>
</linearGradient>
</defs>
</svg>
