<svg width="312" height="440" viewBox="0 0 312 440" fill="none" xmlns="http://www.w3.org/2000/svg">
<mask id="mask0" mask-type="alpha" maskUnits="userSpaceOnUse" x="0" y="-5" width="338" height="445">
<path d="M317.845 -5H20C8.9543 -5 0 3.9543 0 15V419.357C0 430.403 8.9543 439.357 20 439.357H317.845C328.891 439.357 337.845 430.403 337.845 419.357V15C337.845 3.9543 328.891 -5 317.845 -5Z" fill="white"/>
</mask>
<g mask="url(#mask0)">
<path d="M205 43H57V219H205V43Z" fill="url(#paint0_linear)"/>
<path d="M202 46H60V216H202V46Z" stroke="#3F5972" stroke-opacity="0.06" stroke-width="6"/>
<path d="M234 238H28V219H234V238Z" fill="url(#paint1_linear)"/>
<path d="M79 249H58V317H79V249Z" fill="url(#paint2_linear)"/>
<path d="M109 249H88V317H109V249Z" fill="url(#paint3_linear)"/>
<path d="M139 249H118V317H139V249Z" fill="url(#paint4_linear)"/>
<path d="M169 249H148V317H169V249Z" fill="url(#paint5_linear)"/>
<path d="M199 249H178V317H199V249Z" fill="url(#paint6_linear)"/>
<path d="M229 249H208V317H229V249Z" fill="url(#paint7_linear)"/>
<path d="M338 328H0V433H338V328Z" fill="url(#paint8_radial)"/>
<path d="M237.455 169.003C235.839 177.107 231.377 188.527 227.068 193.39C228.146 196.091 228.146 197.712 230.839 198.252C233.532 198.792 239.876 197.266 240.759 194.176C242.063 189.614 241.298 174.421 240.759 170.099C240.221 165.776 238.317 164.68 237.455 169.003Z" fill="#F6B3A6"/>
<path fill-rule="evenodd" clip-rule="evenodd" d="M194.424 221.199C196.326 221.301 198.254 220.751 199.703 219.568C201.721 217.919 208.28 213.762 214.98 209.517C222.416 204.806 230.024 199.985 231.789 198.36C229.59 197.416 227.691 195.528 227.691 192.695C226.864 193.169 223.117 194.208 218.422 195.509C210.27 197.768 199.262 200.818 195.722 203.082C194.936 203.584 194.183 204.077 193.472 204.571C193.4 204.54 193.327 204.509 193.254 204.478C182.616 199.932 167.618 193.524 153.056 193.639C145.95 193.696 133.445 194.684 129.744 204.498C126.043 214.312 133.263 225.742 146.018 225.742C157.639 225.742 185.619 222.859 194.424 221.199Z" fill="#F3AA3C"/>
<path d="M133.657 206.909C134.819 203.402 135.981 193.269 135.206 185.864C138.693 185.085 146.828 184.695 149.926 187.423C149.539 192.879 150.314 198.335 152.638 203.402C148.377 206.13 142.179 207.299 133.657 206.909Z" fill="#E9A99C"/>
<path d="M156.234 187.584C156.234 185.234 156.629 176.223 153.86 167.997C151.09 159.77 143.968 157.028 135.66 158.595C127.351 160.162 125.922 170.234 126.56 174.656C127.351 180.141 129.329 184.058 134.473 187.584C139.616 191.11 156.234 189.935 156.234 187.584Z" fill="#F6B3A6"/>
<path d="M122.358 169.02C122.978 173.974 130.041 183.482 130.493 184.386C128.987 180.62 125.974 174.805 129.589 172.636C133.205 170.467 136.067 173.992 135.916 177.155C137.272 177.155 138.176 177.155 139.08 177.155C138.628 175.799 133.657 169.472 135.464 164.953C137.272 160.434 143.147 163.145 147.666 162.693C152.186 162.242 153.993 159.078 153.993 155.915C153.993 150.862 152.186 144.616 149.926 148.684C147.666 152.751 136.433 150.911 130.041 154.107C122.81 157.722 121.907 165.405 122.358 169.02Z" fill="#573A29"/>
<path d="M172.777 234.24C180.888 218.973 169.472 191.279 151.06 193.167C132.648 195.056 125.73 200.249 123.206 223.854C121.414 240.617 123.41 263.511 132.648 286.644C137.841 279.09 153.893 273.425 165.695 273.425C163.807 261.622 164.751 249.348 172.777 234.24Z" fill="url(#paint9_linear)"/>
<path d="M165.695 261.622C165.371 266.805 166.167 270.592 167.111 274.369C162.957 279.656 141.775 285.227 132.176 287.116C125.566 274.841 102.433 181.837 159.086 194.112C116.596 193.167 125.094 242.266 127.927 252.652C130.759 263.038 136.424 267.287 148.227 265.399C160.03 263.511 163.816 245.571 169.944 233.768C176.071 221.965 168.446 211.793 169.944 211.579C173.248 211.107 178.5 223.185 173.721 233.768C167.111 248.403 166.167 254.068 165.695 261.622Z" fill="url(#paint10_linear)"/>
<path fill-rule="evenodd" clip-rule="evenodd" d="M131.765 291.164C132.093 300.407 137.201 307.925 150.852 308.22C161.087 308.44 184.493 302.882 198.747 297.863C197.885 303.983 199.289 311.074 200.821 318.816C202.243 326.003 203.777 333.75 203.711 341.799C203.663 347.653 207.252 347.443 210.056 344.634C212.86 341.824 218.056 307.495 218.418 299.592C218.758 292.176 218.569 278.883 213.164 278.925C212.541 278.508 211.783 278.147 210.875 277.855C204.326 275.744 174.565 270.617 152.516 274.248C139.606 276.374 131.437 281.921 131.765 291.164Z" fill="url(#paint11_linear)"/>
<path d="M207.683 127.18L206.321 127.592C205.264 127.913 204.667 129.029 204.987 130.086L216.083 166.738C216.403 167.795 217.52 168.392 218.577 168.072L219.938 167.66C220.995 167.34 221.593 166.224 221.273 165.166L210.176 128.515C209.856 127.458 208.74 126.86 207.683 127.18Z" fill="#684836"/>
<path d="M198.092 127.275C198.22 127.069 198.419 126.917 198.651 126.846L217.218 121.225C217.747 121.065 218.305 121.364 218.465 121.892L219.771 126.206C219.931 126.735 219.632 127.293 219.104 127.453L195.617 134.563C194.734 134.831 193.991 133.861 194.479 133.078L198.092 127.275Z" fill="url(#paint12_linear)"/>
<path d="M217.604 164.752C215.715 165.13 213.984 167.742 212.882 169.001C211.624 168.214 209.106 166.64 208.161 164.752C206.398 161.225 207.217 153.422 209.106 152.477C210.994 151.533 213.355 152.949 213.355 152.949C215.872 152.477 219.397 149.928 220.908 151.061C222.419 152.194 223.583 157.356 223.269 160.031C223.047 161.919 219.492 164.374 217.604 164.752Z" fill="#F6B3A6"/>
<path fill-rule="evenodd" clip-rule="evenodd" d="M156.434 272.71C147.524 270.349 139.018 273.692 132.185 286.63C127.074 296.309 127.921 322.01 129.936 338.287C125.221 335.993 118.071 334.98 110.05 333.844C102.497 332.774 94.1709 331.594 86.3819 329.133C80.8223 327.376 79.9432 331.284 81.7758 335.108C83.6085 338.933 115.706 355.232 123.123 357.924C129.467 360.226 141.131 362.58 143.436 358.681C143.878 358.196 144.318 357.599 144.754 356.879C148.52 350.659 161.012 323.647 163.442 299.568C164.865 285.469 165.344 275.071 156.434 272.71Z" fill="url(#paint13_linear)"/>
<path fill-rule="evenodd" clip-rule="evenodd" d="M200.334 207.536C201.597 206.641 202.613 205.45 203.169 204.096C205.268 198.997 213.385 172.044 213.85 167.529C211.528 167.078 210.135 166.175 208.277 164.369C207.901 164.979 206.641 166.91 204.94 169.519C200.348 176.557 192.539 188.528 190.167 192.81C189.901 193.291 189.651 193.762 189.417 194.224C176.685 193.056 156.83 192.279 142.824 196.035C135.592 197.975 128.428 202.356 128.893 211.385C129.357 220.414 136.787 226.282 149.325 226.282C161.863 226.282 194.094 211.388 198.99 208.611C199.521 208.31 199.967 207.947 200.334 207.536Z" fill="url(#paint14_linear)"/>
<path d="M217.066 331.493C217.066 331.493 209.875 336.234 200.631 336.234C202.172 339.921 201.658 345.715 201.658 349.929C201.658 354.143 199.604 356.776 202.172 359.41C204.381 361.675 215.011 359.41 224.256 360.463C234.987 361.686 241.718 358.883 241.204 357.303C240.691 355.723 222.201 350.982 219.12 348.349C216.655 346.242 217.066 335.707 217.066 331.493Z" fill="#2E3642"/>
<path d="M94.0719 345.014C94.0719 345.014 94.6263 337.777 99.0219 330.164C91.597 328.679 87.142 327.291 82.6871 324.719C79.2311 322.723 73.2797 324.891 72.9502 328.366C71.5824 342.791 66.4595 341.407 66.4595 348.337C66.4595 359.057 76.4581 361.818 77.943 361.818C82.893 361.818 75.4466 352.27 79.9402 348.337C84.4337 344.405 91.102 344.024 94.0719 345.014Z" fill="#2E3642"/>
<path d="M278.999 86H245.008V360.764H278.999V86Z" fill="#68553F"/>
<path d="M279 86H262.004V360.764H279V86Z" fill="#544330"/>
<path d="M250.674 105.828H241.232V196.472H250.674V105.828Z" fill="#544330"/>
<path d="M206.296 105.828V113.382H242.176V105.828H206.296Z" fill="#544330"/>
<path d="M159.086 278.146C152.948 282.867 147.283 285.699 137.369 287.588C135.481 293.253 135.481 303.639 136.425 310.721C139.73 310.721 153.893 306.944 157.197 304.583C159.086 300.334 160.974 284.283 159.086 278.146Z" fill="url(#paint15_linear)"/>
</g>
<defs>
<linearGradient id="paint0_linear" x1="131" y1="43" x2="130.777" y2="230.997" gradientUnits="userSpaceOnUse">
<stop stop-color="#2B485C" stop-opacity="0.06"/>
<stop offset="1" stop-color="#2B485C" stop-opacity="0"/>
</linearGradient>
<linearGradient id="paint1_linear" x1="131" y1="238" x2="130.998" y2="217.705" gradientUnits="userSpaceOnUse">
<stop stop-color="#2B485C" stop-opacity="0.06"/>
<stop offset="1" stop-color="#2B485C" stop-opacity="0"/>
</linearGradient>
<linearGradient id="paint2_linear" x1="68.5" y1="249" x2="68.2658" y2="321.635" gradientUnits="userSpaceOnUse">
<stop stop-color="#2B485C" stop-opacity="0.06"/>
<stop offset="1" stop-color="#2B485C" stop-opacity="0"/>
</linearGradient>
<linearGradient id="paint3_linear" x1="98.5" y1="249" x2="98.2658" y2="321.635" gradientUnits="userSpaceOnUse">
<stop stop-color="#2B485C" stop-opacity="0.06"/>
<stop offset="1" stop-color="#2B485C" stop-opacity="0"/>
</linearGradient>
<linearGradient id="paint4_linear" x1="128.5" y1="249" x2="128.266" y2="321.635" gradientUnits="userSpaceOnUse">
<stop stop-color="#2B485C" stop-opacity="0.06"/>
<stop offset="1" stop-color="#2B485C" stop-opacity="0"/>
</linearGradient>
<linearGradient id="paint5_linear" x1="158.5" y1="249" x2="158.266" y2="321.635" gradientUnits="userSpaceOnUse">
<stop stop-color="#2B485C" stop-opacity="0.06"/>
<stop offset="1" stop-color="#2B485C" stop-opacity="0"/>
</linearGradient>
<linearGradient id="paint6_linear" x1="188.5" y1="249" x2="188.266" y2="321.635" gradientUnits="userSpaceOnUse">
<stop stop-color="#2B485C" stop-opacity="0.06"/>
<stop offset="1" stop-color="#2B485C" stop-opacity="0"/>
</linearGradient>
<linearGradient id="paint7_linear" x1="218.5" y1="249" x2="218.266" y2="321.635" gradientUnits="userSpaceOnUse">
<stop stop-color="#2B485C" stop-opacity="0.06"/>
<stop offset="1" stop-color="#2B485C" stop-opacity="0"/>
</linearGradient>
<radialGradient id="paint8_radial" cx="0" cy="0" r="1" gradientUnits="userSpaceOnUse" gradientTransform="translate(174.5 314.5) rotate(93.0715) scale(102.647 331.321)">
<stop stop-color="#2B485C" stop-opacity="0.06"/>
<stop offset="1" stop-color="#2B485C" stop-opacity="0"/>
</radialGradient>
<linearGradient id="paint9_linear" x1="146.339" y1="224.326" x2="123.925" y2="247.436" gradientUnits="userSpaceOnUse">
<stop stop-color="#FFB74A"/>
<stop offset="1" stop-color="#F2A93C"/>
</linearGradient>
<linearGradient id="paint10_linear" x1="141.146" y1="274.841" x2="136.227" y2="218.447" gradientUnits="userSpaceOnUse">
<stop stop-color="#4E64D3"/>
<stop offset="1" stop-color="#364AB0"/>
</linearGradient>
<linearGradient id="paint11_linear" x1="163.807" y1="272.952" x2="170.803" y2="305.579" gradientUnits="userSpaceOnUse">
<stop stop-color="#4E64D3"/>
<stop offset="1" stop-color="#364AB0"/>
</linearGradient>
<linearGradient id="paint12_linear" x1="213.378" y1="117.631" x2="201.575" y2="135.098" gradientUnits="userSpaceOnUse">
<stop stop-color="#9E9E9E"/>
<stop offset="1" stop-color="#686868"/>
</linearGradient>
<linearGradient id="paint13_linear" x1="151.048" y1="284.201" x2="118.599" y2="350.502" gradientUnits="userSpaceOnUse">
<stop stop-color="#4E64D3"/>
<stop offset="1" stop-color="#364AB0"/>
</linearGradient>
<linearGradient id="paint14_linear" x1="206.884" y1="171.141" x2="147.716" y2="230.143" gradientUnits="userSpaceOnUse">
<stop stop-color="#FFB74A"/>
<stop offset="1" stop-color="#F2A93C"/>
</linearGradient>
<linearGradient id="paint15_linear" x1="135.481" y1="279.09" x2="150.985" y2="306.942" gradientUnits="userSpaceOnUse">
<stop stop-color="#4A5EC8"/>
<stop offset="1" stop-color="#3144A5"/>
</linearGradient>
</defs>
</svg>
