<svg width="259" height="427" viewBox="0 0 259 427" fill="none" xmlns="http://www.w3.org/2000/svg">
<mask id="mask0" mask-type="alpha" maskUnits="userSpaceOnUse" x="0" y="0" width="322" height="427">
<path d="M302.799 0.616577H19.0533C8.53043 0.616577 0 9.20869 0 19.8076V407.809C0 418.408 8.53043 427 19.0533 427H302.799C313.322 427 321.852 418.408 321.852 407.809V19.8076C321.852 9.20869 313.322 0.616577 302.799 0.616577Z" fill="white"/>
</mask>
<g mask="url(#mask0)">
<path fill-rule="evenodd" clip-rule="evenodd" d="M358.201 339.681C358.201 339.681 320.172 317.452 320.606 299.745C321.041 282.038 327.82 273.742 335.927 261.402C353.308 234.946 351.021 195.367 328.467 173.526C313.659 159.188 292.565 153.557 272.322 153.843C252.079 154.128 232.3 159.74 212.779 165.313C220.077 135.311 225.22 101.923 211.018 74.7193C196.877 47.6305 164.538 33.2341 135.305 38.4962C106.071 43.7582 81.1649 66.8937 70.1127 95.4902C63.3666 112.946 61.3672 131.997 55.5031 149.792C49.6386 167.587 38.408 185.213 21.0751 190.665C5.66021 195.512 -13.6258 190.668 -24.9005 202.614C-34.406 212.684 -32.4001 229.614 -26.1585 242.138C-19.917 254.662 -10.2439 265.248 -5.24244 278.358C-0.241459 291.469 -0.398567 313.83 -13.8222 315.948C-24.7625 317.676 -30.5027 323.585 -28.6555 330.974C-27.3571 336.169 -22.6785 339.681 -17.5111 339.681H358.201Z" fill="url(#paint0_radial)"/>
<path fill-rule="evenodd" clip-rule="evenodd" d="M107.525 326.441H98.646V295.745H63.8281V288.358H63.8326C63.8313 288.358 63.8299 288.358 63.8286 288.358L77.9465 278.36H98.646V266.874H78.0845V250.866H98.646V241.243H78.0845V225.235H98.646V213.98H107.525V225.235H239.987V213.98H248.865V225.235H280.616V241.243H248.865V250.866H280.616V266.874H248.865V278.36H282.939L296.703 288.358C296.093 288.379 295.482 288.4 294.872 288.42V295.745H248.865V326.441H239.987V295.745H107.525V326.441ZM239.987 266.874V278.36H107.525V266.874H239.987ZM239.987 241.243H107.525V250.866H239.987V241.243Z" fill="url(#paint1_radial)"/>
<path d="M114.907 136.882C114.396 139.071 114.784 140.938 116.55 141.34C117.432 141.541 119.214 141.421 119.698 140.115C120.347 138.36 119.765 137.912 120.758 134.416C121.753 130.92 127.415 126.375 128.109 124.943C130.004 121.034 126.161 117.391 123.417 119.951C120.673 122.512 115.507 134.306 114.907 136.882Z" fill="url(#paint2_linear)"/>
<path d="M154.23 123.49C156.014 125.523 156.984 127.051 155.874 128.517C155.32 129.251 153.949 129.589 152.72 128.873C151.071 127.912 150.292 126.375 148.804 124.682C147.317 122.989 139.602 121.866 138.129 121.188C134.107 119.339 134.518 114.627 138.321 114.86C142.123 115.094 152.445 121.459 154.23 123.49Z" fill="url(#paint3_linear)"/>
<path d="M138.081 114.692C136.615 114.131 133.777 113.655 129.837 114.894C128.088 115.385 123.245 117.863 122.716 121.018C122.188 124.173 128.207 135.536 130.861 138.482C133.378 141.277 139.216 141.314 141.73 137.456C144.911 132.57 143.223 116.662 138.081 114.692Z" fill="url(#paint4_linear)"/>
<path fill-rule="evenodd" clip-rule="evenodd" d="M132.65 101.16C132.358 101.89 131.99 102.81 131.544 103.689C130.128 103.622 128.462 103.799 126.533 104.288C125.059 104.662 123.816 105.296 122.798 106.088C121.882 105.479 120.923 104.759 120.144 104.175C119.441 103.647 118.883 103.228 118.631 103.097C117.995 102.766 118.704 109.31 119.222 112.744C119.182 113.778 119.376 114.719 119.794 115.438C122.124 119.435 127.239 119.198 130.152 119.063C130.602 119.042 131 119.024 131.325 119.024C132.819 119.024 139.448 112.828 137.497 107.327C137.333 106.864 137.103 106.43 136.804 106.031L136.679 105.774V105.773C135.393 103.109 133.555 99.301 133.193 99.9103C133.055 100.141 132.875 100.594 132.65 101.16Z" fill="url(#paint5_linear)"/>
<path fill-rule="evenodd" clip-rule="evenodd" d="M124.557 111.39C124.224 111.56 124.025 111.823 123.883 112.107C123.838 112.198 123.717 112.239 123.614 112.198C123.51 112.157 123.463 112.05 123.509 111.959C123.669 111.639 123.914 111.3 124.349 111.078C124.785 110.854 125.384 110.761 126.215 110.878C126.328 110.893 126.405 110.986 126.388 111.084C126.371 111.183 126.267 111.25 126.154 111.235C125.386 111.126 124.889 111.22 124.557 111.39Z" fill="#423325"/>
<path fill-rule="evenodd" clip-rule="evenodd" d="M131.992 109.789C131.621 109.916 131.361 110.175 131.152 110.469C131.085 110.563 130.955 110.585 130.862 110.518C130.768 110.451 130.746 110.32 130.813 110.226C131.048 109.893 131.372 109.558 131.859 109.392C132.347 109.226 132.964 109.24 133.766 109.54C133.874 109.581 133.929 109.702 133.889 109.81C133.849 109.919 133.729 109.974 133.621 109.934C132.88 109.657 132.364 109.662 131.992 109.789Z" fill="#423325"/>
<path d="M135.432 112.156C137.296 110.647 142.155 109.424 143.613 109.751" stroke="#584236" stroke-width="0.5" stroke-linecap="round" stroke-linejoin="round"/>
<path d="M135.554 113.339C138.955 111.79 141.506 112.36 143.694 112.85" stroke="#584236" stroke-width="0.5" stroke-linecap="round" stroke-linejoin="round"/>
<path d="M123.519 114.885C121.152 114.551 116.357 116.012 115.272 117.045" stroke="#584236" stroke-width="0.5" stroke-linecap="round" stroke-linejoin="round"/>
<path d="M124.018 115.963C120.308 116.39 118.409 118.197 116.781 119.747" stroke="#584236" stroke-width="0.5" stroke-linecap="round" stroke-linejoin="round"/>
<path fill-rule="evenodd" clip-rule="evenodd" d="M173.927 126.545C167.907 130.681 170.128 141.053 173.927 152.49C177.037 161.848 182.154 176.749 185.365 183.512C185.912 184.665 186.965 185.666 188.269 186.419C188.582 186.646 188.918 186.869 189.28 187.086C191.958 188.702 194.625 188.49 197.048 187.14C197.332 186.996 197.604 186.83 197.858 186.64C200.247 185.026 202.36 182.332 203.961 179.265C205.803 175.737 207.477 172.085 209.199 168.329C211.968 162.286 214.86 155.976 218.774 149.483C215.787 149.483 212.801 148.354 211.307 146.098C208.195 150.626 203.67 155.316 199.324 159.718C198.548 152.854 197.178 145.523 194.88 138.201C191.794 128.366 179.947 122.408 173.927 126.545Z" fill="url(#paint6_linear)"/>
<path d="M145.929 123.846C147.549 121.126 150.656 113.644 149.98 107.864C154.707 106.844 161.796 108.884 166.185 114.665C165.172 119.085 166.185 123.166 167.535 127.587C163.146 133.027 148.63 129.627 145.929 123.846Z" fill="#E3B695"/>
<path d="M166.522 118.417C168.832 117.169 170.832 106.738 171.206 99.4085C171.579 92.0787 167.592 87.291 159.085 86.7982C150.577 86.3055 147.066 92.4613 146.214 98.5689C145.363 104.675 147.568 111.267 150.997 114.035C155.117 117.362 163.731 119.927 166.522 118.417Z" fill="#F6C8A6"/>
<path d="M143.903 97.8271C143.903 101.635 146.071 106.71 147.928 109.564C146.38 104.172 145.761 99.3605 148.857 99.0966C151.334 98.8845 152.263 100.048 152.573 103.855L154.43 104.172C153.811 99.0966 152.759 94.357 155.049 92.1178C158.42 88.822 164.605 89.526 167.197 90.5222C169.674 91.4739 170.664 94.0211 170.911 95.29C171.531 98.4623 171.282 101.438 173.949 95.29C176.313 89.8422 171.914 82.0754 164.159 81.001C158.146 80.1678 153.501 80.3809 148.857 84.1875C143.902 88.2479 143.903 93.3368 143.903 97.7628V97.8271Z" fill="#4B4034"/>
<path fill-rule="evenodd" clip-rule="evenodd" d="M156.665 199.578C163.506 196.01 171.126 198.21 177.907 206.315C190.509 221.377 196.568 246.348 196.269 255.86C196.265 256.023 196.257 256.184 196.249 256.342C196.752 257.411 197.029 258.468 196.996 259.313C196.973 259.901 196.898 261.31 196.791 263.356C196.247 273.661 194.849 300.128 194.849 319.37C194.849 342.434 185.189 327.09 185.189 319.37C185.189 308.877 182.742 298.565 180.596 289.523C178.542 280.865 176.764 273.373 177.675 268.001C178.369 263.921 179.205 261.219 180.189 259.278C171.838 254.008 155.889 240.127 149.824 224.548C144.424 210.675 149.824 203.145 156.665 199.578Z" fill="url(#paint7_linear)"/>
<path fill-rule="evenodd" clip-rule="evenodd" d="M148.337 198.883C155.306 199.464 163.86 203.28 164.437 213.892C164.742 219.479 160.837 233.833 157.187 247.25C155.037 255.153 152.975 262.732 151.915 268.003C151.797 268.589 151.661 269.146 151.507 269.674C151.779 270.959 151.915 272.287 151.915 273.604C151.915 283.876 150.113 292.771 147.97 303.346C146.416 311.018 144.682 319.575 143.329 330.181C142.848 333.949 135.457 332.137 135.457 326.577C135.457 318.584 134.41 308.324 133.449 298.906C132.633 290.915 131.88 283.53 131.88 278.649C131.88 275.23 132.386 271.074 133.591 267.547C130.755 250.877 128.32 229.882 130.448 217.026C132.86 202.453 141.368 198.304 148.337 198.883Z" fill="url(#paint8_linear)"/>
<path d="M123.628 150.996C122.752 129.371 127.103 121.967 146.143 121.967C152.864 129.488 163.894 127.672 166.507 123.16C182.187 123.16 185.921 133.688 185.921 150.996C185.921 171.987 175.931 173.184 178.454 205.137C170.988 213.41 145.6 212.281 134.773 205.137C137.76 175.805 124.326 168.223 123.628 150.996Z" fill="url(#paint9_linear)"/>
<path fill-rule="evenodd" clip-rule="evenodd" d="M135.877 125.088C145.205 127.357 147.794 137.68 143.326 146.602C136.668 159.897 129.926 169.737 125.438 175.072C126.387 176.232 127.167 177.514 127.679 178.814C130.765 186.637 132.271 193.262 133.66 199.37C134.742 204.132 135.754 208.579 137.386 213.034C135.586 215.451 134.991 217.383 134.246 219.805C134.064 220.397 133.873 221.018 133.653 221.682C125.138 211.56 118.662 201.752 112.372 187.839C110.922 184.63 110.243 181.368 110.566 178.394C108.176 168.643 110.194 155.499 114.848 142.993C119.512 130.461 126.549 122.819 135.877 125.088Z" fill="url(#paint10_linear)"/>
<path d="M221.839 116.021L211.197 114.801C209.628 114.621 208.212 115.756 208.034 117.336L205.302 141.505C205.124 143.085 206.251 144.511 207.819 144.691L218.461 145.911C220.029 146.091 221.446 144.956 221.624 143.377L224.355 119.207C224.534 117.627 223.407 116.201 221.839 116.021Z" fill="url(#paint11_linear)"/>
<path d="M213.635 116.482L211.449 116.231C210.404 116.112 209.46 116.868 209.341 117.921L209.043 120.559C208.924 121.612 209.675 122.563 210.72 122.683L212.906 122.933C213.952 123.053 214.896 122.297 215.015 121.244L215.313 118.606C215.432 117.553 214.681 116.602 213.635 116.482Z" fill="#393030"/>
<path d="M223.628 144.219C223.03 145.722 220.268 147.978 218.028 149.859C215.415 149.859 212.801 148.73 211.308 146.098C212.801 144.219 211.681 141.586 210.188 139.706C209.254 137.825 210.188 129.929 212.801 129.929C215.414 129.929 222.507 132.185 224.001 134.441C224.656 135.43 224.375 142.338 223.628 144.219Z" fill="#F6C8A6"/>
<path d="M196.702 314.81C195.38 315.379 188.106 316.232 183.809 314.81C185.131 320.142 183.478 327.606 183.478 331.515C183.478 335.425 185.077 339.298 192.735 338.268C200.669 337.202 203.645 341.468 211.579 341.113C217.926 340.828 223.151 336.136 215.547 334.003C207.942 331.871 203.334 328.694 200.669 325.829C198.355 323.341 197.694 322.275 196.702 314.81Z" fill="#14474A"/>
<path d="M132.762 315.563C134.058 316.134 142.804 316.989 147.015 315.563C147.015 321.984 148.311 324.125 148.311 329.476C148.311 331.617 149.514 336.751 142.156 338.038C136.037 339.109 137.297 344.46 126.931 346.244C120.782 347.303 112.906 343.815 119.805 339.109C126.704 334.403 127.384 332.484 129.562 328.646C131.182 325.792 131.79 323.055 132.762 315.563Z" fill="#14474A"/>
</g>
<defs>
<radialGradient id="paint0_radial" cx="0" cy="0" r="1" gradientUnits="userSpaceOnUse" gradientTransform="translate(51.4437 37.4224) rotate(46.4338) scale(378.747 217.982)">
<stop stop-color="#2B485C" stop-opacity="0.06"/>
<stop offset="1" stop-color="#2B485C" stop-opacity="0"/>
</radialGradient>
<radialGradient id="paint1_radial" cx="0" cy="0" r="1" gradientUnits="userSpaceOnUse" gradientTransform="translate(167.192 326.247) rotate(-79.9144) scale(299.206 269.611)">
<stop stop-color="#2B485C" stop-opacity="0.06"/>
<stop offset="1" stop-color="#2B485C" stop-opacity="0"/>
</radialGradient>
<linearGradient id="paint2_linear" x1="122.009" y1="118.991" x2="121.319" y2="141.542" gradientUnits="userSpaceOnUse">
<stop stop-color="#F6D5A3"/>
<stop offset="1" stop-color="#C79B59"/>
</linearGradient>
<linearGradient id="paint3_linear" x1="138.201" y1="113.637" x2="153.434" y2="130.731" gradientUnits="userSpaceOnUse">
<stop stop-color="#F6D5A3"/>
<stop offset="1" stop-color="#C79B59"/>
</linearGradient>
<linearGradient id="paint4_linear" x1="133.363" y1="114.071" x2="132.558" y2="140.381" gradientUnits="userSpaceOnUse">
<stop stop-color="#F6D5A3"/>
<stop offset="1" stop-color="#C79B59"/>
</linearGradient>
<linearGradient id="paint5_linear" x1="140.245" y1="112.252" x2="113.041" y2="111.513" gradientUnits="userSpaceOnUse">
<stop stop-color="#F6D5A3"/>
<stop offset="1" stop-color="#C79B59"/>
</linearGradient>
<linearGradient id="paint6_linear" x1="208.042" y1="173.71" x2="188.93" y2="116.879" gradientUnits="userSpaceOnUse">
<stop stop-color="#152428"/>
<stop offset="1" stop-color="#597984"/>
</linearGradient>
<linearGradient id="paint7_linear" x1="168.731" y1="209.458" x2="143.48" y2="238.469" gradientUnits="userSpaceOnUse">
<stop stop-color="#FFB054"/>
<stop offset="1" stop-color="#E27A3F"/>
</linearGradient>
<linearGradient id="paint8_linear" x1="160.86" y1="202.612" x2="142.001" y2="278.226" gradientUnits="userSpaceOnUse">
<stop stop-color="#FFB054"/>
<stop offset="1" stop-color="#E27A3F"/>
</linearGradient>
<linearGradient id="paint9_linear" x1="147.094" y1="192.352" x2="167.179" y2="117.6" gradientUnits="userSpaceOnUse">
<stop stop-color="#152428"/>
<stop offset="1" stop-color="#597984"/>
</linearGradient>
<linearGradient id="paint10_linear" x1="133.307" y1="180.024" x2="109.189" y2="115.885" gradientUnits="userSpaceOnUse">
<stop stop-color="#152428"/>
<stop offset="1" stop-color="#597984"/>
</linearGradient>
<linearGradient id="paint11_linear" x1="210.784" y1="114.338" x2="221.164" y2="143.842" gradientUnits="userSpaceOnUse">
<stop stop-color="#EB4D4D"/>
<stop offset="1" stop-color="#B51E1E"/>
</linearGradient>
</defs>
</svg>
