<svg width="36" height="36" viewBox="0 0 36 36" fill="none" xmlns="http://www.w3.org/2000/svg">
<rect width="36" height="36" rx="18" fill="white"/>
<path fill-rule="evenodd" clip-rule="evenodd" d="M20.1483 20.8634V19.4315C20.4705 19.2718 21.3919 18.175 21.4885 17.3181C21.7419 17.2987 22.14 17.0661 22.2575 16.1475C22.3205 15.6542 22.0699 15.3772 21.918 15.2898C21.918 15.2898 22.2961 14.5717 22.2961 13.7047C22.2961 11.9664 21.6138 10.483 20.1483 10.483C20.1483 10.483 19.6392 9.40909 18.0004 9.40909C14.9634 9.40909 13.7048 11.3572 13.7048 13.7047C13.7048 14.4951 14.0828 15.2898 14.0828 15.2898C13.9311 15.3772 13.6805 15.6549 13.7435 16.1475C13.8609 17.0661 14.2589 17.2987 14.5124 17.3181C14.609 18.175 15.5305 19.2718 15.8526 19.4315V20.8634C15.1367 23.0112 9.40918 21.5794 9.40918 26.5909H26.5917C26.5917 21.5794 20.8642 23.0112 20.1483 20.8634Z" fill="#0AD1BD"/>
</svg>
