<svg width="44" height="31" viewBox="0 0 44 31" fill="none" xmlns="http://www.w3.org/2000/svg">
<path fill-rule="evenodd" clip-rule="evenodd" d="M28.9173 8.86727C29.6815 8.31699 30.9207 8.31699 31.6849 8.86727L39.5116 14.5028L39.5128 14.5036C39.7005 14.6387 39.842 14.7944 39.9375 14.9606C40.0331 15.1268 40.086 15.309 40.086 15.5C40.086 15.6903 40.0335 15.8718 39.9386 16.0374C39.8915 16.1197 39.8331 16.1994 39.7635 16.2753C39.6918 16.3535 39.6083 16.4276 39.5128 16.4964L39.5116 16.4972L31.6849 22.1328C30.9207 22.683 29.6815 22.683 28.9173 22.1328C28.1531 21.5825 28.1531 20.6903 28.9173 20.14L33.4045 16.9091H6.81733C5.73652 16.9091 4.86035 16.2782 4.86035 15.5C4.86035 14.7218 5.73652 14.0909 6.81733 14.0909H33.4045L28.9173 10.86C28.1531 10.3097 28.1531 9.41756 28.9173 8.86727Z" fill="#0AD1BD"/>
</svg>
