<svg width="44" height="31" viewBox="0 0 44 31" fill="none" xmlns="http://www.w3.org/2000/svg">
<path fill-rule="evenodd" clip-rule="evenodd" d="M15.0828 22.1328C14.3185 22.683 13.0794 22.683 12.3152 22.1328L4.4884 16.4972L4.48725 16.4964C4.29962 16.3613 4.15805 16.2056 4.06255 16.0394C3.96687 15.8733 3.91406 15.6911 3.91406 15.5C3.91406 15.3097 3.96646 15.1282 4.06142 14.9626C4.1085 14.8803 4.16685 14.8006 4.23648 14.7247C4.30813 14.6466 4.39172 14.5724 4.48725 14.5036L4.4884 14.5028L12.3152 8.86727C13.0794 8.31699 14.3185 8.31699 15.0828 8.86727C15.847 9.41756 15.847 10.3097 15.0828 10.86L10.5956 14.0909H37.1827C38.2636 14.0909 39.1397 14.7218 39.1397 15.5C39.1397 16.2782 38.2636 16.9091 37.1827 16.9091H10.5956L15.0828 20.14C15.847 20.6903 15.847 21.5825 15.0828 22.1328Z" fill="#0AD1BD"/>
</svg>
