<svg width="46" height="46" viewBox="0 0 46 46" fill="none" xmlns="http://www.w3.org/2000/svg">
<path d="M28.1877 26.399C27.791 26.399 27.4111 26.5572 27.1307 26.8375L23.9596 30.3688C23.6791 30.6499 23.2549 31.075 21.8455 31.075C21.1408 31.075 21.1408 30.3688 21.1408 29.6625V29.224C21.1408 28.8263 21.2987 28.4457 21.5784 28.1646L29.1588 20.9206C29.4392 20.6395 29.5964 20.2588 29.5964 19.8612C29.5971 19.0335 28.9276 18.3625 28.1024 18.3625C27.7057 18.3625 27.3259 18.52 27.0454 18.8011L24.6643 21.0668V20.5668C24.6643 19.7397 23.9948 19.0688 23.1696 19.0688C22.7729 19.0688 22.393 19.2263 22.1126 19.5074L21.1408 20.4813V19.8605C21.1408 19.0335 20.4714 18.3625 19.6462 18.3625C19.2494 18.3625 18.8696 18.52 18.5891 18.8011L16.9127 20.4813V19.8605C16.9127 19.0335 16.2432 18.3625 15.4181 18.3625C15.0213 18.3625 14.6415 18.52 14.361 18.8011C11.2752 21.7568 9.16113 24.7188 9.16113 28.9563V30.3688L14.7986 36.0188H17.9697C20.6771 36.0188 23.2549 35.3125 25.3689 33.1938L29.1595 29.0418C29.4399 28.7607 29.5971 28.38 29.5971 27.9824C29.5971 27.1554 29.0136 26.399 28.1877 26.399Z" fill="black"/>
<path d="M8.74365 34.6036L10.0674 33.2769L11.8894 35.103L10.5656 36.4296L8.74365 34.6036Z" fill="black"/>
<path d="M7.75152 29.9548L5.9292 31.7812L7.75152 33.6076L9.07563 32.2805L7.75152 30.9535V29.9548Z" fill="black"/>
<path d="M2.40137 36.7219L5.63228 33.4838L11.6816 39.5466L8.45068 42.7847L2.40137 36.7219Z" fill="black"/>
<path d="M12.891 36.1042L11.5669 37.4313L13.3892 39.2577L15.2115 37.4313H14.2151L12.891 36.1042Z" fill="black"/>
<path d="M33.1201 30.3688H34.5295V38.8438H33.1201V30.3688Z" fill="black"/>
<path d="M35.939 30.3688H37.3483V38.8438H35.939V30.3688Z" fill="black"/>
<path d="M30.3018 30.3688H31.7111V38.8438H30.3018V30.3688Z" fill="black"/>
<path d="M24.6641 38.8437H26.0734V34.4523C25.6231 34.8711 25.158 35.2553 24.6641 35.5837V38.8437Z" fill="black"/>
<path d="M27.4829 38.8437H28.8923V31.4253L27.4829 32.9699V38.8437Z" fill="black"/>
<path d="M38.7578 30.3688H40.1672V38.8438H38.7578V30.3688Z" fill="black"/>
<path d="M37.3485 16.95C37.3485 14.2246 35.1351 12.0062 32.4157 12.0062C29.6963 12.0062 27.4829 14.2246 27.4829 16.95C27.4829 16.974 27.4857 16.9973 27.4864 17.0213C27.688 16.9775 27.8937 16.95 28.1023 16.95C28.1559 16.95 28.2059 16.9627 28.2588 16.9655L29.9634 14.8312H34.8687L37.2654 17.8335C37.3175 17.5461 37.3485 17.2515 37.3485 16.95Z" fill="black"/>
<path d="M21.8452 37.4312C21.8452 38.2102 22.4773 38.8437 23.2546 38.8437V36.3556C22.8015 36.5646 22.3336 36.7454 21.8452 36.8923V37.4312Z" fill="black"/>
<path d="M41.5765 2.11877H23.2546C22.4773 2.11877 21.8452 2.75228 21.8452 3.53127V17.9635C21.848 17.967 21.8523 17.9691 21.8551 17.9727C22.2596 17.7672 22.7113 17.6563 23.1693 17.6563C23.1989 17.6563 23.2257 17.664 23.2546 17.6655V4.94377C23.2546 4.16478 23.8867 3.53127 24.664 3.53127H40.1671C40.9444 3.53127 41.5765 4.16478 41.5765 4.94377V38.8438C42.3537 38.8438 42.9858 38.2103 42.9858 37.4313V3.53127C42.9858 2.75228 42.3537 2.11877 41.5765 2.11877Z" fill="black"/>
<path d="M24.6641 18.087C24.8811 18.2191 25.0862 18.3681 25.2616 18.5503L26.0748 17.777C26.0903 17.7615 26.1108 17.7502 26.127 17.7346C26.0953 17.4754 26.0734 17.2141 26.0734 16.95C26.0734 13.4449 28.9183 10.5937 32.4156 10.5937C35.913 10.5937 38.7578 13.4449 38.7578 16.95C38.7578 20.4551 35.913 23.3062 32.4156 23.3062C31.3861 23.3062 30.3734 23.0484 29.47 22.5738L26.134 25.8388C26.6745 25.2964 27.4229 24.9864 28.1875 24.9864C29.742 24.9864 31.0062 26.3304 31.0062 27.9823C31.0062 28.3164 30.9372 28.6441 30.8266 28.9562H40.1672V4.94373H24.6641V18.087Z" fill="black"/>
<path d="M32.4158 21.8938C34.2501 21.8938 35.8511 20.8824 36.701 19.3887L34.1916 16.2438H30.64L29.6929 17.4303C30.4828 17.9515 31.0064 18.8449 31.0064 19.8605C31.0064 20.4424 30.826 21.0138 30.5033 21.4926C31.1029 21.7469 31.7442 21.8938 32.4158 21.8938ZM31.0064 17.6563H33.8252V19.0688H31.0064V17.6563Z" fill="black"/>
<path d="M4.93262 1.41248L1.40918 4.94373L11.9795 12.0062L4.93262 1.41248Z" fill="black"/>
<path d="M16.2079 1.41248H13.3892L14.7985 9.18123L16.2079 1.41248Z" fill="black"/>
<path d="M1.40918 13.4187V16.2437L9.16074 14.8312L1.40918 13.4187Z" fill="black"/>
</svg>
