<svg width="32" height="36" viewBox="0 0 32 36" fill="none" xmlns="http://www.w3.org/2000/svg">
<path d="M13.6011 14.4964L12.7411 15.0066L13.2513 15.8667L14.1113 15.3565L13.6011 14.4964ZM22.1829 9.40551L22.6931 10.2656L23.5532 9.75536L23.043 8.89531L22.1829 9.40551ZM12.5807 12.7763L12.0705 11.9163L11.2105 12.4265L11.7207 13.2865L12.5807 12.7763ZM21.1625 7.6854L22.0226 7.1752L21.5124 6.31514L20.6523 6.82535L21.1625 7.6854ZM12.5807 23.2237L11.7207 22.7135L11.2105 23.5735L12.0705 24.0837L12.5807 23.2237ZM21.1625 28.3146L20.6523 29.1747L21.5124 29.6849L22.0226 28.8248L21.1625 28.3146ZM13.6011 21.5036L14.1113 20.6435L13.2513 20.1333L12.7411 20.9934L13.6011 21.5036ZM22.1829 26.5945L23.043 27.1047L23.5532 26.2446L22.6931 25.7344L22.1829 26.5945ZM14.1113 15.3565L22.6931 10.2656L21.6727 8.54545L13.0909 13.6364L14.1113 15.3565ZM11.7207 13.2865L12.7411 15.0066L14.4612 13.9862L13.4408 12.2661L11.7207 13.2865ZM20.6523 6.82535L12.0705 11.9163L13.0909 13.6364L21.6727 8.54545L20.6523 6.82535ZM23.043 8.89531L22.0226 7.1752L20.3025 8.1956L21.3229 9.91571L23.043 8.89531ZM12.0705 24.0837L20.6523 29.1747L21.6727 27.4545L13.0909 22.3636L12.0705 24.0837ZM12.7411 20.9934L11.7207 22.7135L13.4408 23.7339L14.4612 22.0138L12.7411 20.9934ZM22.6931 25.7344L14.1113 20.6435L13.0909 22.3636L21.6727 27.4545L22.6931 25.7344ZM22.0226 28.8248L23.043 27.1047L21.3229 26.0843L20.3025 27.8044L22.0226 28.8248ZM5.09091 10.9091C1.17471 10.9091 -2 14.0838 -2 18H0C0 15.1884 2.27928 12.9091 5.09091 12.9091V10.9091ZM12.1818 18C12.1818 14.0838 9.00711 10.9091 5.09091 10.9091V12.9091C7.90254 12.9091 10.1818 15.1884 10.1818 18H12.1818ZM5.09091 25.0909C9.00711 25.0909 12.1818 21.9162 12.1818 18H10.1818C10.1818 20.8116 7.90254 23.0909 5.09091 23.0909V25.0909ZM-2 18C-2 21.9162 1.17471 25.0909 5.09091 25.0909V23.0909C2.27928 23.0909 0 20.8116 0 18H-2ZM2 18C2 16.2929 3.38385 14.9091 5.09091 14.9091V12.9091C2.27928 12.9091 0 15.1884 0 18H2ZM5.09091 21.0909C3.38385 21.0909 2 19.7071 2 18H0C0 20.8116 2.27928 23.0909 5.09091 23.0909V21.0909ZM8.18182 18C8.18182 19.7071 6.79797 21.0909 5.09091 21.0909V23.0909C7.90254 23.0909 10.1818 20.8116 10.1818 18H8.18182ZM5.09091 14.9091C6.79797 14.9091 8.18182 16.2929 8.18182 18H10.1818C10.1818 15.1884 7.90254 12.9091 5.09091 12.9091V14.9091ZM25.4545 0C21.94 0 19.0909 2.8491 19.0909 6.36364H21.0909C21.0909 3.95367 23.0446 2 25.4545 2V0ZM31.8182 6.36364C31.8182 2.8491 28.9691 0 25.4545 0V2C27.8645 2 29.8182 3.95367 29.8182 6.36364H31.8182ZM25.4545 12.7273C28.9691 12.7273 31.8182 9.87818 31.8182 6.36364H29.8182C29.8182 8.77361 27.8645 10.7273 25.4545 10.7273V12.7273ZM19.0909 6.36364C19.0909 9.87818 21.94 12.7273 25.4545 12.7273V10.7273C23.0446 10.7273 21.0909 8.77361 21.0909 6.36364H19.0909ZM23.0909 6.36364C23.0909 5.05824 24.1491 4 25.4545 4V2C23.0446 2 21.0909 3.95367 21.0909 6.36364H23.0909ZM25.4545 8.72727C24.1491 8.72727 23.0909 7.66904 23.0909 6.36364H21.0909C21.0909 8.77361 23.0446 10.7273 25.4545 10.7273V8.72727ZM27.8182 6.36364C27.8182 7.66904 26.7599 8.72727 25.4545 8.72727V10.7273C27.8645 10.7273 29.8182 8.77361 29.8182 6.36364H27.8182ZM25.4545 4C26.7599 4 27.8182 5.05824 27.8182 6.36364H29.8182C29.8182 3.95367 27.8645 2 25.4545 2V4ZM25.4545 23.2727C21.94 23.2727 19.0909 26.1218 19.0909 29.6364H21.0909C21.0909 27.2264 23.0446 25.2727 25.4545 25.2727V23.2727ZM31.8182 29.6364C31.8182 26.1218 28.9691 23.2727 25.4545 23.2727V25.2727C27.8645 25.2727 29.8182 27.2264 29.8182 29.6364H31.8182ZM25.4545 36C28.9691 36 31.8182 33.1509 31.8182 29.6364H29.8182C29.8182 32.0463 27.8645 34 25.4545 34V36ZM19.0909 29.6364C19.0909 33.1509 21.94 36 25.4545 36V34C23.0446 34 21.0909 32.0463 21.0909 29.6364H19.0909ZM23.0909 29.6364C23.0909 28.331 24.1491 27.2727 25.4545 27.2727V25.2727C23.0446 25.2727 21.0909 27.2264 21.0909 29.6364H23.0909ZM25.4545 32C24.1491 32 23.0909 30.9418 23.0909 29.6364H21.0909C21.0909 32.0463 23.0446 34 25.4545 34V32ZM27.8182 29.6364C27.8182 30.9418 26.7599 32 25.4545 32V34C27.8645 34 29.8182 32.0463 29.8182 29.6364H27.8182ZM25.4545 27.2727C26.7599 27.2727 27.8182 28.331 27.8182 29.6364H29.8182C29.8182 27.2264 27.8645 25.2727 25.4545 25.2727V27.2727Z" fill="#0AD1BD"/>
</svg>
